<svg width="26" height="29" viewBox="0 0 26 29" fill="none" xmlns="http://www.w3.org/2000/svg">
<path d="M0 5.4375C0 4.43496 0.829911 3.625 1.85714 3.625H24.1429C25.1701 3.625 26 4.43496 26 5.4375C26 6.44004 25.1701 7.25 24.1429 7.25H1.85714C0.829911 7.25 0 6.44004 0 5.4375ZM0 14.5C0 13.4975 0.829911 12.6875 1.85714 12.6875H24.1429C25.1701 12.6875 26 13.4975 26 14.5C26 15.5025 25.1701 16.3125 24.1429 16.3125H1.85714C0.829911 16.3125 0 15.5025 0 14.5ZM26 23.5625C26 24.565 25.1701 25.375 24.1429 25.375H1.85714C0.829911 25.375 0 24.565 0 23.5625C0 22.56 0.829911 21.75 1.85714 21.75H24.1429C25.1701 21.75 26 22.56 26 23.5625Z" fill="#F8F2E2"/>
</svg>
