<svg width="14" height="14" viewBox="0 0 14 14" fill="none" xmlns="http://www.w3.org/2000/svg">
<g clip-path="url(#clip0_10_47)">
<path d="M8.38633 8.88945L4.44062 10.407C3.88555 10.6121 3.38789 10.0898 3.59297 9.55937L5.11055 5.61367C5.19805 5.38125 5.38125 5.19805 5.61367 5.11055L9.55937 3.59297C10.0898 3.38789 10.6121 3.88555 10.407 4.44062L8.88945 8.38633C8.80195 8.61875 8.61875 8.80195 8.38633 8.88945ZM6.97539 6.125C6.51602 6.125 6.10039 6.51602 6.10039 7C6.10039 7.48398 6.51602 7.875 6.97539 7.875C7.48398 7.875 7.875 7.48398 7.875 7C7.875 6.51602 7.48398 6.125 6.97539 6.125ZM14 7C14 10.8664 10.8664 14 7 14C3.13359 14 0 10.8664 0 7C0 3.13359 3.13359 0 7 0C10.8664 0 14 3.13359 14 7ZM7 1.3125C3.8582 1.3125 1.3125 3.8582 1.3125 7C1.3125 10.1418 3.8582 12.6875 7 12.6875C10.1418 12.6875 12.6875 10.1418 12.6875 7C12.6875 3.8582 10.1418 1.3125 7 1.3125Z" fill="#E36414"/>
</g>
<defs>
<clipPath id="clip0_10_47">
<rect width="14" height="14" fill="white"/>
</clipPath>
</defs>
</svg>
