<svg width="29" height="33" viewBox="0 0 29 33" fill="none" xmlns="http://www.w3.org/2000/svg">
<g clip-path="url(#clip0_17_97)">
<path d="M14.5065 9.08788C10.3895 9.08788 7.06875 12.3943 7.06875 16.4935C7.06875 20.5928 10.3895 23.8992 14.5065 23.8992C18.6234 23.8992 21.9442 20.5928 21.9442 16.4935C21.9442 12.3943 18.6234 9.08788 14.5065 9.08788ZM14.5065 21.3082C11.846 21.3082 9.67098 19.149 9.67098 16.4935C9.67098 13.8381 11.8395 11.6789 14.5065 11.6789C17.1734 11.6789 19.342 13.8381 19.342 16.4935C19.342 19.149 17.167 21.3082 14.5065 21.3082ZM23.9833 8.78495C23.9833 9.7453 23.2065 10.5123 22.2484 10.5123C21.2839 10.5123 20.5136 9.73885 20.5136 8.78495C20.5136 7.83104 21.2904 7.0576 22.2484 7.0576C23.2065 7.0576 23.9833 7.83104 23.9833 8.78495ZM28.9094 10.5381C28.7993 8.22421 28.2685 6.1746 26.5661 4.48593C24.8701 2.79725 22.8116 2.26874 20.4877 2.15272C18.0926 2.01737 10.9138 2.01737 8.51875 2.15272C6.20134 2.26229 4.14286 2.79081 2.4404 4.47948C0.737949 6.16815 0.213619 8.21776 0.0971008 10.5316C-0.0388367 12.9164 -0.0388367 20.0642 0.0971008 22.449C0.207145 24.7629 0.737949 26.8125 2.4404 28.5012C4.14286 30.1898 6.19487 30.7183 8.51875 30.8344C10.9138 30.9697 18.0926 30.9697 20.4877 30.8344C22.8116 30.7248 24.8701 30.1963 26.5661 28.5012C28.2621 26.8125 28.7929 24.7629 28.9094 22.449C29.0453 20.0642 29.0453 12.9228 28.9094 10.5381ZM25.8152 25.0078C25.3103 26.2711 24.3328 27.2443 23.0576 27.7535C21.148 28.5076 16.6167 28.3336 14.5065 28.3336C12.3962 28.3336 7.85848 28.5012 5.95536 27.7535C4.68661 27.2508 3.70915 26.2775 3.19777 25.0078C2.4404 23.1064 2.61518 18.5947 2.61518 16.4935C2.61518 14.3924 2.44688 9.87421 3.19777 7.97928C3.70268 6.716 4.68014 5.74276 5.95536 5.23358C7.86496 4.47948 12.3962 4.6535 14.5065 4.6535C16.6167 4.6535 21.1545 4.48592 23.0576 5.23358C24.3263 5.73632 25.3038 6.70956 25.8152 7.97928C26.5725 9.88065 26.3978 14.3924 26.3978 16.4935C26.3978 18.5947 26.5725 23.1129 25.8152 25.0078Z" fill="#F8F2E2"/>
</g>
<defs>
<clipPath id="clip0_17_97">
<rect width="29" height="33" fill="white"/>
</clipPath>
</defs>
</svg>
