<svg width="26" height="31" viewBox="0 0 26 31" fill="none" xmlns="http://www.w3.org/2000/svg">
<g clip-path="url(#clip0_17_99)">
<path d="M23.2143 1.9375H2.78571C2.0469 1.9375 1.33834 2.24369 0.815917 2.78872C0.293494 3.33375 0 4.07296 0 4.84375L0 26.1562C0 26.927 0.293494 27.6663 0.815917 28.2113C1.33834 28.7563 2.0469 29.0625 2.78571 29.0625H10.7511V19.8406H7.09487V15.5H10.7511V12.1917C10.7511 8.42873 12.8984 6.35016 16.1873 6.35016C17.7624 6.35016 19.4095 6.6432 19.4095 6.6432V10.3366H17.5947C15.8066 10.3366 15.2489 11.4942 15.2489 12.6815V15.5H19.2406L18.6022 19.8406H15.2489V29.0625H23.2143C23.9531 29.0625 24.6617 28.7563 25.1841 28.2113C25.7065 27.6663 26 26.927 26 26.1562V4.84375C26 4.07296 25.7065 3.33375 25.1841 2.78872C24.6617 2.24369 23.9531 1.9375 23.2143 1.9375Z" fill="#F8F2E2"/>
</g>
<defs>
<clipPath id="clip0_17_99">
<rect width="26" height="31" fill="white"/>
</clipPath>
</defs>
</svg>
