<svg width="29" height="32" viewBox="0 0 29 32" fill="none" xmlns="http://www.w3.org/2000/svg">
<path d="M25.8929 2H3.10714C1.39174 2 0 3.34375 0 5V27C0 28.6562 1.39174 30 3.10714 30H25.8929C27.6083 30 29 28.6562 29 27V5C29 3.34375 27.6083 2 25.8929 2ZM22.7275 11.925C22.7404 12.1 22.7404 12.2812 22.7404 12.4563C22.7404 17.875 18.4681 24.1187 10.6614 24.1187C8.25335 24.1187 6.02009 23.4438 4.14286 22.2812C4.48594 22.3188 4.81607 22.3312 5.16563 22.3312C7.1529 22.3312 8.97835 21.6812 10.4348 20.5812C8.57054 20.5437 7.00402 19.3625 6.46674 17.7375C7.12054 17.8312 7.7096 17.8313 8.38281 17.6625C6.44085 17.2812 4.98438 15.6312 4.98438 13.6375V13.5875C5.54754 13.8937 6.20781 14.0813 6.90045 14.1062C6.31813 13.7323 5.84077 13.2249 5.51095 12.6295C5.18113 12.034 5.00912 11.369 5.01027 10.6938C5.01027 9.93125 5.21741 9.23125 5.58638 8.625C7.67723 11.1125 10.8167 12.7375 14.3382 12.9125C13.7362 10.1313 15.8917 7.875 18.481 7.875C19.7045 7.875 20.8049 8.36875 21.5817 9.16875C22.5397 8.99375 23.4589 8.65 24.2746 8.18125C23.9574 9.13125 23.2906 9.93125 22.4103 10.4375C23.2647 10.35 24.0933 10.1188 24.8571 9.8C24.281 10.6188 23.556 11.3438 22.7275 11.925Z" fill="#F8F2E2"/>
</svg>
